<svg xmlns="http://www.w3.org/2000/svg" width="31.785" height="28.366" viewBox="0 0 31.785 28.366">
  <g id="Group_4564" data-name="Group 4564" transform="translate(-2896.883 -451)">
    <path id="Path_1693" data-name="Path 1693" d="M115.762,157.328a18,18,0,0,1-3.435-2.046l-.089-.068c.122.093.018.014-.014-.011-.061-.047-.118-.093-.179-.143-.14-.114-.279-.229-.415-.347-.243-.211-.483-.426-.719-.648a18.659,18.659,0,0,1-1.363-1.449c-.122-.147-.243-.293-.358-.44-.025-.029-.047-.061-.072-.089.107.136-.014-.018-.029-.036-.057-.075-.114-.15-.172-.229-.225-.308-.44-.622-.644-.941v.723c.168-.265.347-.522.529-.78.082-.114.165-.225.247-.336.021-.029.043-.054.064-.082.079-.1,0,0-.018.021l.161-.2q.569-.714,1.209-1.367c.426-.433.873-.848,1.338-1.238.114-.093.229-.19.343-.279.036-.029.225-.182.082-.064.068-.054.14-.107.208-.157.236-.175.479-.347.726-.512.508-.34,1.034-.655,1.571-.945.272-.143.547-.283.823-.411.136-.064.272-.125.408-.186.064-.029.129-.057.193-.082-.15.061-.057.025-.025.011l.147-.061a17.986,17.986,0,0,1,3.6-1.03q.268-.048.537-.086c.014,0,.1-.011.107-.014-.089.011-.107.014-.054.007l.082-.011.272-.032c.347-.039.7-.068,1.045-.086a18.292,18.292,0,0,1,2.5.043.715.715,0,0,0,.716-.716.732.732,0,0,0-.716-.716,18.668,18.668,0,0,0-8.082,1.105,18.762,18.762,0,0,0-9.262,7.488.707.707,0,0,0,0,.723,18.933,18.933,0,0,0,5.95,5.867,18.4,18.4,0,0,0,2.046,1.095.736.736,0,0,0,.98-.258.709.709,0,0,0-.243-.984Z" transform="translate(2789.953 313.94)"/>
    <path id="Path_1694" data-name="Path 1694" d="M326.1,167.133a18.162,18.162,0,0,1,3.517,2.064c.025.021.243.186.1.079l.179.14c.132.107.265.215.394.326.261.222.515.447.762.683a17.853,17.853,0,0,1,1.381,1.467c.122.143.243.293.358.44.029.036.057.075.089.111-.061-.075-.036-.047.011.014s.114.15.172.229c.233.315.451.633.662.962v-.723c-.165.258-.336.508-.512.758-.086.122-.175.24-.261.358-.021.029-.043.057-.064.082-.086.114.007-.018.018-.021-.043.007-.132.168-.161.2q-.569.714-1.209,1.367a17.021,17.021,0,0,1-1.32,1.22q-.172.145-.343.279c-.054.043-.107.089-.165.129.129-.093.05-.039.021-.018s-.082.064-.125.093c-.243.182-.494.358-.744.529q-.751.5-1.549.934c-.272.147-.544.283-.823.415-.136.064-.272.125-.408.186l-.193.086c-.136.057.021-.011.025-.011s-.14.057-.147.061a17.665,17.665,0,0,1-3.57,1.034c-.168.032-.34.057-.512.086l-.136.021c-.15.021-.018-.021,0,0a1.08,1.08,0,0,0-.272.032c-.358.043-.716.072-1.073.093a18.391,18.391,0,0,1-2.472-.029.718.718,0,0,0-.716.716.735.735,0,0,0,.716.716,18.6,18.6,0,0,0,8.039-1.145,18.875,18.875,0,0,0,6.475-4.125,19.126,19.126,0,0,0,2.712-3.334.707.707,0,0,0,0-.723,18.955,18.955,0,0,0-6.057-5.932,18.256,18.256,0,0,0-2.079-1.091.737.737,0,0,0-.98.258.73.73,0,0,0,.258.98Z" transform="translate(2593.608 291.896)"/>
    <path id="Path_1695" data-name="Path 1695" d="M266.148,202.823a4.134,4.134,0,0,1-.125-.458,2.206,2.206,0,0,1-.043-.222l-.021-.129c.011.072.007.064,0,0a5.209,5.209,0,0,1-.014-.884c0-.068.011-.136.018-.2.014-.132-.025.15.007-.032.021-.132.047-.261.079-.39.029-.111.057-.222.093-.333.018-.054.036-.107.057-.161.011-.032.021-.061.036-.093s.061-.154.018-.05.029-.061.043-.093c.025-.05.05-.1.075-.154.057-.115.122-.225.19-.336s.129-.2.2-.3c.014-.018.029-.039.043-.057.057-.079-.086.1-.025.032.039-.05.079-.1.122-.147a4.864,4.864,0,0,1,.508-.508l.129-.107c.1-.082-.021.011-.032.021a.526.526,0,0,1,.075-.057c.1-.075.211-.147.318-.215s.222-.132.336-.19c.064-.032.129-.064.2-.1a.386.386,0,0,1,.068-.029c.15-.068-.1.039-.014.007a6.041,6.041,0,0,1,.823-.247.721.721,0,0,0,.5-.88.734.734,0,0,0-.88-.5A5.576,5.576,0,0,0,266,197.674a5.72,5.72,0,0,0-1.46,3.2,5.509,5.509,0,0,0,.233,2.325.713.713,0,1,0,1.374-.379Z" transform="translate(2642.687 263.691)"/>
    <path id="Path_1696" data-name="Path 1696" d="M349.1,242.762a4.854,4.854,0,0,1,.279,1.052c-.025-.15.011.1.011.136.007.089.011.175.014.265q.005.231-.011.462c0,.068-.011.132-.018.2-.021.186.021-.129-.007.057-.021.147-.054.29-.089.433-.032.125-.068.25-.111.372l-.064.182c-.011.029-.025.061-.036.089-.032.082.061-.136.007-.018a5.254,5.254,0,0,1-.394.708c-.036.054-.072.1-.107.154a.318.318,0,0,1-.057.075c.007,0,.107-.132.025-.032s-.172.2-.265.3-.175.179-.272.265c-.047.043-.093.082-.143.125-.025.021-.05.039-.072.061-.1.082,0,.032.014-.011-.011.036-.122.089-.154.111-.054.036-.1.072-.157.1-.122.075-.243.147-.372.215-.072.036-.143.072-.215.1-.029.014-.061.025-.086.039.061-.039.114-.046.014-.007-.143.057-.286.1-.433.147s-.283.075-.429.1c-.082.014-.165.025-.243.039.018,0,.172-.018.043-.007-.05,0-.1.011-.15.014a.732.732,0,0,0-.716.716.725.725,0,0,0,.716.716,5.588,5.588,0,0,0,5.18-4.984,5.417,5.417,0,0,0-.322-2.569.735.735,0,0,0-.88-.5.722.722,0,0,0-.5.88Z" transform="translate(2567.545 220.832)"/>
    <path id="Path_1697" data-name="Path 1697" d="M233.039,63.6c-.143.24-.286.483-.429.723-.386.651-.773,1.306-1.163,1.957l-1.724,2.905q-1.046,1.766-2.1,3.531l-2.3,3.882Q224.157,78.56,223,80.518q-1.079,1.819-2.161,3.638-.912,1.54-1.825,3.077l-1.32,2.222c-.207.351-.422.7-.622,1.052-.007.014-.018.029-.025.043a.717.717,0,1,0,1.238.723c.143-.24.286-.483.429-.723.386-.651.773-1.306,1.163-1.957l1.724-2.905q1.046-1.766,2.1-3.531l2.3-3.882q1.165-1.959,2.325-3.918,1.079-1.819,2.161-3.638.912-1.54,1.825-3.077l1.32-2.222c.208-.351.422-.7.623-1.052.007-.014.018-.029.025-.043a.717.717,0,1,0-1.238-.723Z" transform="translate(2687.13 387.745)"/>
  </g>
</svg>
