<svg xmlns="http://www.w3.org/2000/svg" width="31.785" height="18.242" viewBox="0 0 31.785 18.242">
  <g id="Group_4563" data-name="Group 4563" transform="translate(-2456.3 -480)">
    <path id="Path_1691" data-name="Path 1691" d="M139.965,148.864l-2.178-2.178a18.563,18.563,0,0,0-26.128,0l-2.178,2.178a2.214,2.214,0,0,0,0,3.137l2.177,2.177h0a18.562,18.562,0,0,0,26.128,0L139.965,152h0a2.214,2.214,0,0,0,0-3.137Zm-1.033,2.1-2.177,2.177h0a17.086,17.086,0,0,1-24.024,0l-2.177-2.177a.738.738,0,0,1,0-1.033l2.177-2.177a17.086,17.086,0,0,1,24.024,0l2.177,2.177h0a.738.738,0,0,1,0,1.033Z" transform="translate(2347.469 338.689)"/>
    <path id="Path_1692" data-name="Path 1692" d="M246.156,170.24a5.916,5.916,0,1,0,4.184,1.733A5.917,5.917,0,0,0,246.156,170.24Zm0,10.6h0a1.946,1.946,0,1,1,0,.03Z" transform="translate(2226.037 312.983)"/>
  </g>
</svg>
